<?xml version="1.0" encoding="utf-8"?>
<!-- Generator: Adobe Illustrator 15.1.0, SVG Export Plug-In . SVG Version: 6.00 Build 0)  -->
<!DOCTYPE svg PUBLIC "-//W3C//DTD SVG 1.1//EN" "http://www.w3.org/Graphics/SVG/1.1/DTD/svg11.dtd">
<svg version="1.1" id="Layer_1" xmlns="http://www.w3.org/2000/svg" xmlns:xlink="http://www.w3.org/1999/xlink" x="0px" y="0px"
	 width="109.75px" height="30.875px" viewBox="0 0 109.75 30.875" enable-background="new 0 0 109.75 30.875" xml:space="preserve">
<path fill="#F58025" d="M6.885,25.037c1.559,1.971,3.381,3.75,5.432,5.283c2.029-1.513,3.861-3.281,5.441-5.27l-5.445-5.295
	L6.885,25.037z"/>
<path fill="#F58025" d="M4.352,21.25l7.967-7.652l7.982,7.673c1.326-2.357,2.332-4.937,2.951-7.692
	c0.028-0.131,0.051-0.26,0.079-0.391H1.312C1.909,16.026,2.941,18.74,4.352,21.25"/>
<path fill="#F58025" d="M4.347,21.25c0.742,1.324,1.592,2.59,2.539,3.787l5.428-5.281l5.445,5.295
	c0.94-1.184,1.789-2.447,2.537-3.779l-7.982-7.673L4.347,21.25z"/>
<path d="M17.734,24.677l-5.245-5.101l-0.175-0.169l-0.175,0.169L6.91,24.665c-0.831-1.077-1.587-2.207-2.25-3.368l7.654-7.35
	l7.668,7.371C19.313,22.489,18.557,23.617,17.734,24.677"/>
<path d="M12.313,13.598l7.982,7.673c-0.748,1.332-1.597,2.596-2.537,3.779l-5.445-5.295l-5.428,5.281
	c-0.947-1.197-1.797-2.463-2.539-3.787L12.313,13.598 M12.313,14.292l-7.34,7.049c0.588,1.015,1.247,2.004,1.965,2.948l5.026-4.892
	l0.349-0.339l0.349,0.339l5.045,4.905c0.712-0.936,1.37-1.922,1.961-2.94L12.313,14.292z"/>
<path d="M23.827,5.028c-0.936,0.285-1.93,0.439-2.963,0.439c-3.642,0-6.824-1.914-8.541-4.763c-1.719,2.849-4.9,4.763-8.543,4.763
	c-1.031,0-2.025-0.154-2.959-0.437c-0.244,2.781-0.066,5.525,0.486,8.164h22.018C23.901,10.442,24.057,7.698,23.827,5.028"/>
<g enable-background="new    ">
	<g>
		<defs>
			<rect id="SVGID_1_" x="6.896" y="6.029" width="10.85" height="6.398"/>
		</defs>
		<clipPath id="SVGID_2_">
			<use xlink:href="#SVGID_1_"  overflow="visible"/>
		</clipPath>
		<path clip-path="url(#SVGID_2_)" fill="#FFFFFF" d="M17.746,8.396V7.46h-0.572V6.8l-0.6-0.168h-0.043v-0.56
			c0,0-0.207,0.248-1.156,0.248c-0.899,0-1.426-0.291-2.141-0.291c-0.687,0-0.898,0.392-0.898,0.392v0.227h-0.024V6.421
			c0,0-0.214-0.392-0.898-0.392c-0.715,0-1.242,0.293-2.141,0.293c-0.949,0-1.113-0.248-1.113-0.248v0.59H8.121L7.471,6.8v0.66
			H6.896v0.936h0.575V9.91H6.896v0.937h0.575v1.164c0,0,0.962,0.151,1.853,0.151c1.053,0,1.66-0.153,2.344-0.166v0.295
			c0,0,0.275,0.136,0.642,0.136c0.372,0,0.666-0.136,0.666-0.136v-0.295c0.682,0.013,1.29,0.166,2.348,0.166
			c0.887,0,1.85-0.151,1.85-0.151v-1.164h0.572V9.91h-0.572V8.396H17.746z"/>
	</g>
</g>
<path d="M16.622,6.571l0.002-0.717l-0.173,0.183c-0.002,0.002-0.216,0.215-1.083,0.215l-1.176-0.156l-0.966-0.135
	c-0.531,0-0.795,0.217-0.911,0.348c-0.116-0.131-0.382-0.348-0.91-0.348l-0.966,0.137L9.265,6.254c-0.854,0-1.032-0.205-1.034-0.207
	L8.055,5.83L8.052,6.105v0.492L7.355,6.744v5.381l0.084,0.012c0.01,0.001,0.981,0.152,1.87,0.152c0.876,0,1.916-0.115,2.244-0.154
	v0.244l0.054,0.029c0.013,0.006,0.301,0.147,0.688,0.147c0.389,0,0.695-0.141,0.708-0.147l0.058-0.027v-0.246
	c0.328,0.039,1.368,0.154,2.249,0.154c0.885,0,1.857-0.151,1.867-0.152l0.084-0.012V6.75L16.622,6.571z M12.415,6.501
	c0.008-0.013,0.198-0.342,0.811-0.342l0.923,0.131l1.219,0.16c0.59,0,0.891-0.091,1.057-0.171v5.085
	c-0.012-0.026-0.252,0.156-1.057,0.156l-1.176-0.156l-0.966-0.135c-0.419,0-0.665,0.135-0.811,0.256V6.501z M8.251,6.289
	c0.16,0.08,0.447,0.164,1.014,0.164l1.217-0.16l0.923-0.133c0.607,0,0.8,0.325,0.811,0.342v4.986
	c-0.148-0.123-0.396-0.258-0.819-0.258l-0.966,0.137l-1.166,0.154c-0.854,0-1.032-0.205-1.034-0.207
	C8.231,11.313,8.249,6.629,8.251,6.289 M17.061,11.951c-0.245,0.035-1.025,0.137-1.751,0.137c-1.041,0-2.324-0.162-2.336-0.164
	l-0.113-0.016v0.342c-0.098,0.037-0.314,0.103-0.566,0.103c-0.247,0-0.449-0.066-0.543-0.101v-0.344l-0.112,0.016
	c-0.013,0.002-1.297,0.164-2.331,0.164c-0.729,0-1.509-0.102-1.754-0.137V6.907C7.646,6.889,7.919,6.83,8.052,6.803v4.569
	c0.049,0.106,0.258,0.348,1.213,0.348l1.209-0.158l0.923-0.133c0.618,0,0.811,0.328,0.82,0.342l0.028-0.016h0.143l0.027,0.016
	c0.008-0.014,0.198-0.342,0.811-0.342l0.923,0.131l1.219,0.16c0.968,0,1.21-0.254,1.234-0.283l0.019-4.657
	c0.127,0.035,0.359,0.099,0.44,0.123V11.951z"/>
<path d="M9.667,7.185c-0.078,0.006-0.129,0.047-0.152,0.1L9.194,7.997c0,0-0.015,0.012-0.025,0.012c-0.01,0-0.022-0.012-0.029-0.033
	c-0.008-0.025-0.047-0.125-0.131-0.32L8.905,7.422c-0.037-0.086-0.066-0.142-0.076-0.16c-0.037-0.064-0.084-0.07-0.135-0.078
	C8.688,7.177,8.688,7.168,8.688,7.164c0-0.008,0-0.012,0.004-0.022h0.053c0.061,0,0.111,0.004,0.156,0.004
	c0.053,0,0.141-0.006,0.2-0.006h0.035c0.006,0.002,0.008,0.014,0.008,0.02c0,0.004,0,0.017-0.004,0.023
	C9.101,7.187,9.013,7.185,9.013,7.24c0,0.011,0.002,0.033,0.008,0.047l0.21,0.5l0.176-0.415c0.022-0.046,0.024-0.087,0.024-0.109
	c0-0.047-0.034-0.068-0.121-0.078C9.308,7.179,9.304,7.17,9.304,7.165c0-0.007,0.004-0.019,0.006-0.025h0.025
	c0.039,0,0.078,0.006,0.166,0.006c0.016,0,0.076-0.004,0.105-0.004h0.061c0.004,0.008,0.008,0.012,0.008,0.02
	C9.675,7.167,9.671,7.179,9.667,7.185"/>
<path d="M10.56,7.983c-0.256,0-0.395-0.006-0.43-0.006c-0.027,0-0.09-0.002-0.121-0.002c-0.035,0-0.117,0.006-0.207,0.006
	L9.75,7.979C9.748,7.971,9.748,7.967,9.748,7.96c0-0.006,0-0.016,0.001-0.024C9.817,7.93,9.867,7.919,9.877,7.909
	C9.892,7.892,9.901,7.856,9.906,7.78c0-0.039,0.002-0.082,0.002-0.127c0-0.065-0.002-0.143-0.002-0.236V7.284
	C9.904,7.192,9.858,7.192,9.763,7.18C9.761,7.172,9.759,7.166,9.759,7.159c0-0.006,0.002-0.02,0.008-0.022h0.047
	c0.031,0,0.115,0.002,0.275,0.002c0.147,0,0.289,0.002,0.321,0.002c0.019,0,0.076,0.002,0.088,0.002c0.019,0,0.027,0.002,0.027,0.02
	l0.012,0.191c-0.012,0.006-0.014,0.008-0.024,0.008c-0.008,0-0.014,0-0.019-0.002c-0.057-0.096-0.084-0.115-0.127-0.147
	c-0.016-0.011-0.039-0.019-0.075-0.021c-0.011,0-0.041-0.002-0.113-0.002c-0.058,0-0.088,0.002-0.096,0.002
	c-0.009,0-0.007,0-0.011,0.033c-0.002,0.02-0.004,0.059-0.004,0.17v0.109h0.029c0.037,0,0.074-0.003,0.096-0.009
	c0.033-0.01,0.068-0.033,0.086-0.061c0.008-0.01,0.015-0.056,0.019-0.07c0.006-0.004,0.016-0.006,0.028-0.006
	c0.007,0,0.015,0.002,0.021,0.006c-0.002,0.035-0.008,0.099-0.008,0.182c0,0.041,0.004,0.13,0.004,0.167
	c-0.008,0.006-0.012,0.006-0.023,0.006c-0.006,0-0.018,0-0.024-0.002c-0.007-0.072-0.019-0.121-0.08-0.146
	c-0.033-0.014-0.06-0.018-0.093-0.018c-0.018,0-0.04,0.002-0.057,0.004v0.221c0,0.051,0.004,0.082,0.012,0.1
	c0.005,0.013,0.025,0.043,0.05,0.046c0.012,0.002,0.034,0.006,0.078,0.006h0.122c0.031,0,0.076-0.004,0.091-0.013
	c0.03-0.02,0.108-0.104,0.135-0.182c0.012-0.004,0.018-0.004,0.026-0.004c0.007,0,0.015,0.002,0.025,0.006V7.96
	C10.604,7.981,10.591,7.983,10.56,7.983"/>
<path d="M11.575,7.405c-0.006,0-0.014-0.002-0.023-0.002c-0.02-0.053-0.043-0.1-0.063-0.125c-0.035-0.043-0.068-0.072-0.156-0.082
	c-0.02-0.002-0.067-0.002-0.082-0.002l-0.002,0.373c0,0.059,0,0.127,0.002,0.256c0.002,0.098,0.045,0.098,0.146,0.111
	c0.006,0.01,0.008,0.018,0.008,0.024c0,0.008-0.002,0.013-0.006,0.021h-0.037c-0.058,0-0.176-0.004-0.213-0.004
	c-0.025,0-0.154,0.006-0.215,0.006c-0.005-0.01-0.007-0.01-0.007-0.023c0-0.006,0.002-0.014,0.005-0.022
	c0.135-0.01,0.149-0.035,0.153-0.078c0.004-0.027,0.004-0.139,0.004-0.252V7.298c0-0.039-0.002-0.079-0.008-0.104
	c-0.026,0-0.108,0-0.131,0.01c-0.068,0.025-0.117,0.082-0.17,0.185c-0.006,0.002-0.016,0.002-0.021,0.002
	c-0.008,0-0.016-0.002-0.02-0.007V7.167c0-0.02,0.002-0.026,0.025-0.026c0.02,0,0.051,0.002,0.092,0.002
	c0.03,0,0.153,0.002,0.307,0.002c0.203,0,0.353-0.006,0.392-0.006c0.02,0,0.034,0,0.041,0.008c0.002,0.004,0,0.02,0,0.031v0.217
	C11.593,7.403,11.583,7.405,11.575,7.405"/>
<path d="M9.626,8.728c-0.008,0-0.014-0.002-0.025-0.002c-0.018-0.053-0.041-0.1-0.063-0.125C9.505,8.558,9.47,8.528,9.382,8.519
	C9.362,8.517,9.315,8.517,9.3,8.517L9.298,8.89c0,0.059,0,0.127,0.002,0.256c0.002,0.098,0.047,0.098,0.148,0.111
	c0.006,0.01,0.006,0.018,0.006,0.024c0,0.008,0,0.013-0.004,0.021H9.413c-0.06,0-0.178-0.004-0.213-0.004
	c-0.025,0-0.154,0.006-0.217,0.006C8.98,9.293,8.978,9.293,8.978,9.28c0-0.006,0.002-0.014,0.003-0.022
	c0.135-0.01,0.149-0.035,0.155-0.078c0.002-0.027,0.002-0.139,0.002-0.252V8.621c0-0.039,0-0.079-0.006-0.104
	c-0.026,0-0.11,0-0.133,0.01C8.931,8.551,8.884,8.608,8.831,8.711C8.823,8.713,8.814,8.713,8.808,8.713
	c-0.008,0-0.014-0.002-0.02-0.007V8.489c0-0.02,0.004-0.026,0.026-0.026c0.021,0,0.05,0.002,0.091,0.002
	c0.032,0,0.155,0.002,0.309,0.002c0.201,0,0.353-0.006,0.391-0.006c0.021,0,0.035,0,0.041,0.008C9.649,8.474,9.647,8.489,9.647,8.5
	v0.217C9.642,8.726,9.634,8.728,9.626,8.728"/>
<path d="M10.591,9.306c-0.254,0-0.395-0.006-0.428-0.006c-0.027,0-0.09-0.002-0.123-0.002c-0.033,0-0.117,0.006-0.205,0.006
	L9.784,9.302C9.78,9.294,9.779,9.29,9.779,9.283c0-0.006,0-0.016,0.003-0.024C9.851,9.253,9.9,9.242,9.909,9.232
	c0.016-0.018,0.024-0.053,0.028-0.129c0.002-0.039,0.004-0.082,0.004-0.127c0-0.065-0.002-0.143-0.002-0.236
	c0-0.067-0.002-0.106-0.002-0.133C9.935,8.515,9.892,8.515,9.796,8.503C9.792,8.495,9.79,8.488,9.79,8.482
	c0-0.006,0.004-0.02,0.01-0.022h0.045c0.033,0,0.115,0.002,0.275,0.002c0.149,0,0.289,0.002,0.323,0.002
	c0.017,0,0.076,0.002,0.086,0.002c0.021,0,0.029,0.002,0.029,0.02l0.01,0.191c-0.01,0.006-0.014,0.008-0.024,0.008
	c-0.006,0-0.012,0-0.019-0.002c-0.055-0.096-0.082-0.115-0.127-0.147c-0.016-0.011-0.037-0.019-0.073-0.021
	c-0.011,0-0.041-0.002-0.115-0.002c-0.056,0-0.088,0.002-0.094,0.002c-0.011,0-0.009,0-0.013,0.033c0,0.02-0.002,0.059-0.002,0.17
	v0.109h0.027c0.039,0,0.076-0.003,0.096-0.009c0.035-0.01,0.068-0.033,0.088-0.061c0.006-0.01,0.015-0.056,0.017-0.07
	c0.008-0.004,0.018-0.006,0.028-0.006c0.009,0,0.017,0.002,0.023,0.006c-0.002,0.035-0.01,0.099-0.01,0.182
	c0,0.041,0.006,0.13,0.006,0.167c-0.01,0.006-0.012,0.006-0.023,0.006c-0.008,0-0.018,0-0.026-0.002
	c-0.007-0.072-0.017-0.121-0.08-0.146c-0.033-0.014-0.06-0.018-0.092-0.018c-0.017,0-0.039,0.002-0.056,0.004v0.221
	c0,0.051,0.004,0.082,0.01,0.1c0.007,0.013,0.027,0.043,0.05,0.046c0.012,0.002,0.036,0.006,0.078,0.006h0.124
	c0.031,0,0.074-0.004,0.089-0.013c0.032-0.02,0.11-0.104,0.137-0.182c0.01-0.004,0.018-0.004,0.025-0.004
	c0.006,0,0.016,0.002,0.024,0.006v0.223C10.636,9.304,10.622,9.306,10.591,9.306"/>
<path d="M11.185,9.325c-0.07,0-0.148-0.027-0.195-0.051c-0.008-0.004-0.024-0.008-0.032-0.008c-0.009,0-0.035,0.014-0.062,0.034
	c-0.02,0-0.043-0.01-0.049-0.026c0-0.017,0.016-0.07,0.016-0.103c0-0.02-0.006-0.116-0.008-0.137
	c0.008-0.012,0.023-0.018,0.037-0.018h0.014c0.017,0.036,0.052,0.127,0.078,0.164c0.053,0.061,0.131,0.088,0.187,0.088
	c0.063,0,0.11-0.011,0.137-0.041c0.039-0.037,0.047-0.06,0.047-0.101c0-0.031-0.006-0.057-0.024-0.076
	c-0.021-0.028-0.039-0.039-0.087-0.063c-0.038-0.017-0.168-0.051-0.215-0.076C10.97,8.884,10.94,8.86,10.912,8.829
	c-0.036-0.045-0.049-0.106-0.049-0.154c0-0.135,0.107-0.237,0.26-0.237c0.056,0,0.134,0.006,0.201,0.059
	c0.013-0.016,0.031-0.033,0.048-0.049c0.026,0,0.043,0.014,0.045,0.023c-0.002,0.02-0.013,0.073-0.013,0.116
	c0,0.021,0.013,0.111,0.013,0.125c-0.009,0.004-0.019,0.011-0.033,0.011c-0.004,0-0.01-0.002-0.015-0.003
	c-0.024-0.041-0.045-0.11-0.071-0.147c-0.039-0.053-0.093-0.072-0.168-0.072c-0.084,0-0.152,0.053-0.152,0.125
	c0,0.07,0.057,0.103,0.103,0.125c0.036,0.013,0.079,0.029,0.127,0.045c0.063,0.021,0.11,0.037,0.135,0.05
	c0.098,0.051,0.139,0.124,0.139,0.223C11.481,9.225,11.341,9.325,11.185,9.325"/>
<path d="M9.966,10.63c-0.256,0-0.395-0.006-0.43-0.006c-0.027,0-0.09-0.002-0.121-0.002c-0.035,0-0.117,0.006-0.207,0.006
	l-0.051-0.002c-0.003-0.008-0.003-0.012-0.003-0.019c0-0.006,0-0.016,0.001-0.024c0.069-0.006,0.118-0.017,0.129-0.027
	c0.014-0.018,0.024-0.053,0.028-0.129c0-0.039,0.002-0.082,0.002-0.127c0-0.065-0.002-0.143-0.002-0.236V9.931
	C9.31,9.839,9.265,9.839,9.169,9.827C9.167,9.819,9.165,9.812,9.165,9.806c0-0.006,0.002-0.02,0.008-0.022H9.22
	c0.031,0,0.115,0.002,0.275,0.002c0.147,0,0.289,0.002,0.321,0.002c0.019,0,0.076,0.002,0.088,0.002c0.019,0,0.027,0.002,0.027,0.02
	l0.012,0.191c-0.012,0.006-0.014,0.008-0.024,0.008c-0.008,0-0.014,0-0.019-0.002C9.843,9.911,9.816,9.892,9.773,9.86
	C9.757,9.849,9.734,9.841,9.698,9.839c-0.011,0-0.041-0.002-0.113-0.002c-0.058,0-0.088,0.002-0.096,0.002
	c-0.009,0-0.007,0-0.011,0.033c-0.002,0.02-0.004,0.059-0.004,0.17v0.109h0.029c0.037,0,0.074-0.003,0.096-0.009
	c0.033-0.01,0.068-0.033,0.086-0.061c0.008-0.01,0.015-0.056,0.019-0.07c0.006-0.004,0.016-0.006,0.028-0.006
	c0.007,0,0.015,0.002,0.021,0.006c-0.002,0.035-0.008,0.099-0.008,0.182c0,0.041,0.004,0.13,0.004,0.167
	c-0.008,0.006-0.012,0.006-0.023,0.006c-0.006,0-0.018,0-0.024-0.002c-0.007-0.072-0.019-0.121-0.08-0.146
	C9.589,10.204,9.562,10.2,9.529,10.2c-0.018,0-0.04,0.002-0.057,0.004v0.221c0,0.051,0.004,0.082,0.012,0.1
	c0.005,0.013,0.025,0.043,0.05,0.046c0.012,0.002,0.034,0.006,0.078,0.006h0.122c0.031,0,0.076-0.004,0.091-0.013
	c0.03-0.02,0.108-0.104,0.135-0.182c0.012-0.004,0.018-0.004,0.026-0.004c0.007,0,0.015,0.002,0.025,0.006v0.223
	C10.011,10.628,9.997,10.63,9.966,10.63"/>
<path d="M11.196,9.827c-0.086,0.004-0.16,0.051-0.16,0.187l-0.002,0.434c0,0.018,0.008,0.141,0.008,0.188
	c-0.014,0.007-0.028,0.013-0.035,0.013c-0.004,0-0.012-0.006-0.022-0.013l-0.596-0.641l0.006,0.131l0.002,0.236
	c0,0.018,0.004,0.063,0.008,0.096c0.004,0.053,0.02,0.07,0.043,0.09c0.029,0.025,0.078,0.033,0.113,0.037
	c0.004,0.006,0.006,0.013,0.006,0.019c0,0.002-0.002,0.014-0.008,0.022h-0.064c-0.055,0-0.098-0.002-0.154-0.002
	c-0.038,0-0.09,0.004-0.127,0.004h-0.028c-0.002-0.006-0.002-0.016-0.002-0.02c0-0.004,0-0.011,0.004-0.021
	c0.043-0.004,0.11-0.024,0.135-0.059c0.01-0.021,0.014-0.06,0.014-0.101v-0.303c0-0.049-0.002-0.074-0.004-0.121
	c-0.002-0.039-0.01-0.069-0.03-0.092c-0.002-0.006-0.021-0.025-0.041-0.045c-0.019-0.016-0.066-0.029-0.095-0.041
	c-0.004-0.008-0.006-0.018-0.006-0.019c0-0.006,0.002-0.016,0.006-0.022h0.021c0.018,0,0.11,0.004,0.18,0.004h0.041
	c0.008,0.004,0.021,0.012,0.025,0.018l0.442,0.482c0.033,0.037,0.076,0.086,0.099,0.117v-0.348c0-0.046-0.002-0.08-0.004-0.097
	c-0.004-0.035-0.011-0.067-0.025-0.09c-0.014-0.022-0.096-0.033-0.139-0.043c-0.004-0.008-0.004-0.018-0.004-0.025
	c0-0.004,0-0.01,0.002-0.018h0.026c0.041,0,0.107,0.006,0.148,0.006c0.102,0,0.133-0.004,0.184-0.004h0.033
	C11.2,9.794,11.2,9.802,11.2,9.807C11.2,9.811,11.2,9.821,11.196,9.827"/>
<path d="M13.979,7.181c-0.084,0.004-0.16,0.051-0.16,0.187v0.434c0,0.018,0.006,0.141,0.006,0.188
	c-0.012,0.007-0.028,0.013-0.033,0.013c-0.006,0-0.012-0.006-0.024-0.013l-0.596-0.641l0.008,0.131l0.002,0.236
	c0,0.018,0.004,0.063,0.006,0.096c0.006,0.053,0.021,0.07,0.043,0.09c0.031,0.025,0.08,0.033,0.113,0.037
	c0.004,0.006,0.006,0.013,0.006,0.019c0,0.002-0.002,0.014-0.006,0.022h-0.066c-0.053,0-0.096-0.002-0.154-0.002
	c-0.038,0-0.088,0.004-0.125,0.004h-0.028c-0.002-0.006-0.004-0.016-0.004-0.02c0-0.004,0-0.011,0.006-0.021
	c0.041-0.004,0.108-0.024,0.133-0.059c0.012-0.021,0.014-0.06,0.014-0.101V7.478c0-0.049,0-0.074-0.002-0.121
	c-0.002-0.039-0.012-0.069-0.03-0.092c-0.004-0.006-0.021-0.025-0.043-0.045c-0.017-0.016-0.066-0.029-0.095-0.041
	c-0.002-0.008-0.004-0.018-0.004-0.019c0-0.006,0.002-0.016,0.004-0.022h0.023c0.016,0,0.108,0.004,0.178,0.004h0.041
	c0.008,0.004,0.021,0.012,0.027,0.018l0.442,0.482c0.033,0.037,0.076,0.086,0.099,0.117V7.411c0-0.046-0.004-0.08-0.006-0.097
	c-0.002-0.035-0.011-0.067-0.025-0.09c-0.014-0.022-0.096-0.033-0.137-0.043c-0.004-0.008-0.006-0.018-0.006-0.025
	c0-0.004,0-0.01,0.004-0.018h0.026c0.041,0,0.107,0.006,0.148,0.006c0.1,0,0.133-0.004,0.184-0.004h0.031
	c0.004,0.008,0.006,0.016,0.006,0.021C13.985,7.165,13.983,7.175,13.979,7.181"/>
<path d="M14.857,7.878c-0.082,0.08-0.196,0.127-0.301,0.127c-0.1,0-0.215-0.043-0.295-0.121c-0.088-0.084-0.127-0.197-0.127-0.322
	c0-0.119,0.039-0.233,0.127-0.319c0.094-0.089,0.195-0.127,0.297-0.127c0.074,0,0.142,0.02,0.223,0.063
	c0.13,0.084,0.207,0.223,0.207,0.375C14.988,7.673,14.941,7.792,14.857,7.878 M14.72,7.261c-0.041-0.055-0.092-0.088-0.168-0.088
	c-0.07,0-0.115,0.031-0.156,0.088c-0.051,0.064-0.078,0.168-0.078,0.299c0,0.129,0.027,0.23,0.074,0.295
	c0.043,0.062,0.092,0.093,0.166,0.093c0.09,0,0.142-0.042,0.183-0.115c0.038-0.064,0.055-0.154,0.055-0.271
	C14.796,7.423,14.769,7.325,14.72,7.261"/>
<path d="M16.056,7.185c-0.076,0.006-0.127,0.047-0.15,0.1l-0.321,0.712c0,0-0.015,0.012-0.025,0.012
	c-0.01,0-0.024-0.012-0.029-0.033c-0.008-0.025-0.047-0.125-0.133-0.32l-0.102-0.233c-0.037-0.086-0.066-0.142-0.076-0.16
	c-0.039-0.064-0.084-0.07-0.135-0.078c-0.008-0.008-0.008-0.016-0.008-0.021c0-0.008,0-0.012,0.006-0.022h0.053
	c0.059,0,0.109,0.004,0.154,0.004c0.053,0,0.141-0.006,0.202-0.006h0.033c0.008,0.002,0.01,0.014,0.01,0.02
	c0,0.004,0,0.017-0.004,0.023c-0.041,0.004-0.127,0.002-0.127,0.057c0,0.011,0,0.033,0.007,0.047l0.209,0.5l0.178-0.415
	c0.02-0.046,0.022-0.087,0.022-0.109c0-0.047-0.034-0.068-0.121-0.078c-0.002-0.006-0.004-0.014-0.004-0.02
	c0-0.007,0.002-0.019,0.004-0.025h0.025c0.039,0,0.078,0.006,0.168,0.006c0.014,0,0.076-0.004,0.105-0.004h0.061
	c0.004,0.008,0.006,0.012,0.006,0.02C16.063,7.167,16.062,7.179,16.056,7.185"/>
<path d="M13.704,8.728c-0.008,0-0.014-0.002-0.025-0.002c-0.018-0.053-0.041-0.1-0.063-0.125c-0.033-0.043-0.068-0.072-0.156-0.082
	c-0.02-0.002-0.067-0.002-0.082-0.002L13.376,8.89c0,0.059,0,0.127,0.002,0.256c0.002,0.098,0.047,0.098,0.148,0.111
	c0.006,0.01,0.006,0.018,0.006,0.024c0,0.008,0,0.013-0.004,0.021h-0.037c-0.06,0-0.178-0.004-0.213-0.004
	c-0.025,0-0.154,0.006-0.217,0.006c-0.003-0.01-0.005-0.01-0.005-0.023c0-0.006,0.002-0.014,0.003-0.022
	c0.135-0.01,0.149-0.035,0.155-0.078c0.002-0.027,0.002-0.139,0.002-0.252V8.621c0-0.039,0-0.079-0.006-0.104
	c-0.026,0-0.11,0-0.133,0.01c-0.068,0.025-0.115,0.082-0.168,0.185c-0.008,0.002-0.017,0.002-0.023,0.002
	c-0.008,0-0.014-0.002-0.02-0.007V8.489c0-0.02,0.004-0.026,0.026-0.026c0.021,0,0.05,0.002,0.091,0.002
	c0.032,0,0.155,0.002,0.309,0.002c0.201,0,0.353-0.006,0.391-0.006c0.021,0,0.035,0,0.041,0.008c0.003,0.004,0.001,0.02,0.001,0.031
	v0.217C13.72,8.726,13.712,8.728,13.704,8.728"/>
<path d="M14.716,9.306h-0.066c-0.043,0-0.092-0.006-0.143-0.006c-0.08,0-0.181,0.006-0.22,0.006
	c-0.004-0.004-0.006-0.012-0.006-0.022c0-0.005,0.002-0.013,0.004-0.019c0.082-0.004,0.115-0.018,0.115-0.051
	c0-0.014,0-0.041-0.026-0.109c-0.025-0.063-0.039-0.09-0.045-0.106c-0.003-0.006-0.005-0.009-0.023-0.009H14.04
	C14.022,9.011,14,9.07,13.978,9.152c-0.006,0.021-0.006,0.041-0.006,0.048c0,0.028,0.025,0.059,0.119,0.061
	c0.006,0.01,0.006,0.018,0.006,0.023c0,0.006,0,0.012-0.002,0.02h-0.023c-0.063,0-0.08-0.004-0.147-0.004
	c-0.043,0-0.146,0.004-0.181,0.004c-0.002-0.008-0.004-0.01-0.004-0.018c0-0.005,0-0.011,0.004-0.021
	c0.05-0.012,0.097-0.025,0.121-0.063c0.013-0.019,0.058-0.097,0.107-0.218c0.047-0.114,0.104-0.256,0.129-0.315
	c0.035-0.074,0.047-0.097,0.059-0.123c0.017-0.037,0.037-0.074,0.044-0.088c0.008-0.009,0.026-0.015,0.034-0.015
	c0.013,0,0.031,0.007,0.037,0.017c0.008,0.016,0.017,0.031,0.019,0.041c0.049,0.117,0.088,0.221,0.149,0.365
	c0.031,0.073,0.047,0.12,0.08,0.196c0.023,0.047,0.037,0.084,0.06,0.127c0.032,0.064,0.082,0.064,0.133,0.078
	c0.002,0.006,0.008,0.012,0.008,0.019C14.724,9.294,14.72,9.298,14.716,9.306 M14.183,8.636h-0.002
	c-0.018,0.033-0.049,0.105-0.06,0.137c-0.045,0.109-0.061,0.146-0.069,0.162h0.252C14.285,8.884,14.22,8.729,14.183,8.636"/>
<path d="M16.021,9.306l-0.342-0.004h-0.094c-0.003-0.008-0.005-0.017-0.005-0.021c0-0.012,0.002-0.014,0.007-0.022
	c0.018-0.002,0.063,0,0.084-0.008c0.036-0.015,0.049-0.05,0.049-0.101V8.658V8.542h-0.002l-0.179,0.395
	c-0.02,0.043-0.043,0.09-0.063,0.137c-0.041,0.091-0.062,0.154-0.074,0.191c-0.006,0.016-0.02,0.016-0.027,0.016
	c-0.012,0-0.02-0.004-0.026-0.024c-0.023-0.051-0.039-0.084-0.047-0.105l-0.281-0.619h-0.006v0.158l0.006,0.394
	c0,0.121,0.063,0.178,0.158,0.178c0.004,0.006,0.008,0.018,0.008,0.02c0,0.005-0.002,0.013-0.006,0.021
	c-0.006,0-0.025,0.002-0.043,0.002c-0.012,0-0.074-0.006-0.164-0.006c-0.025,0-0.078,0.002-0.119,0.002h-0.057
	c-0.002-0.008-0.004-0.014-0.004-0.021c0-0.002,0.002-0.012,0.004-0.018c0.024-0.006,0.106-0.025,0.123-0.043
	c0.018-0.018,0.034-0.053,0.034-0.137V8.884V8.65c-0.002-0.069-0.01-0.096-0.043-0.119c-0.014-0.01-0.067-0.016-0.112-0.022
	c-0.004-0.008-0.006-0.017-0.006-0.023c0-0.006,0.002-0.014,0.006-0.024c0.034,0,0.092,0.004,0.151,0.004h0.205
	c0.008,0.006,0.011,0.01,0.017,0.022l0.252,0.57l0.045-0.113c0.039-0.092,0.096-0.231,0.176-0.379
	c0.018-0.033,0.039-0.076,0.051-0.098l0.32-0.006c0.004,0.008,0.008,0.014,0.008,0.022c0,0.008-0.002,0.013-0.006,0.021
	c-0.035,0.006-0.096,0.006-0.125,0.055c-0.01,0.016-0.016,0.031-0.016,0.1v0.408c0,0.156,0.039,0.172,0.057,0.183
	c0.01,0.006,0.059,0.012,0.086,0.012c0.004,0.008,0.006,0.014,0.006,0.022C16.026,9.296,16.022,9.298,16.021,9.306"/>
<path d="M13.685,10.052c-0.008,0-0.014-0.002-0.025-0.002c-0.018-0.053-0.041-0.1-0.063-0.125c-0.033-0.043-0.068-0.072-0.156-0.082
	c-0.02-0.002-0.067-0.002-0.082-0.002l-0.002,0.373c0,0.059,0,0.127,0.002,0.256c0.002,0.098,0.047,0.098,0.148,0.111
	c0.006,0.01,0.006,0.018,0.006,0.024c0,0.008,0,0.013-0.004,0.021h-0.037c-0.06,0-0.178-0.004-0.213-0.004
	c-0.025,0-0.154,0.006-0.217,0.006c-0.003-0.01-0.005-0.01-0.005-0.023c0-0.006,0.002-0.014,0.003-0.022
	c0.135-0.01,0.149-0.035,0.155-0.078c0.002-0.027,0.002-0.139,0.002-0.252V9.945c0-0.039,0-0.079-0.006-0.104
	c-0.026,0-0.11,0-0.133,0.01c-0.068,0.025-0.115,0.082-0.168,0.185c-0.008,0.002-0.017,0.002-0.023,0.002
	c-0.008,0-0.014-0.002-0.02-0.007V9.814c0-0.02,0.004-0.026,0.026-0.026c0.021,0,0.05,0.002,0.091,0.002
	c0.032,0,0.155,0.002,0.309,0.002c0.201,0,0.353-0.006,0.391-0.006c0.021,0,0.035,0,0.041,0.008c0.003,0.004,0.001,0.02,0.001,0.031
	v0.217C13.701,10.05,13.692,10.052,13.685,10.052"/>
<path d="M14.733,9.831c-0.076,0.006-0.127,0.047-0.15,0.1l-0.321,0.712c0,0-0.015,0.012-0.025,0.012
	c-0.01,0-0.024-0.012-0.029-0.033c-0.008-0.025-0.047-0.125-0.133-0.32l-0.102-0.233c-0.037-0.086-0.066-0.142-0.076-0.16
	c-0.039-0.064-0.084-0.07-0.135-0.078c-0.008-0.008-0.008-0.016-0.008-0.021c0-0.008,0-0.012,0.006-0.022h0.053
	c0.059,0,0.109,0.004,0.154,0.004c0.053,0,0.141-0.006,0.202-0.006h0.033c0.008,0.002,0.01,0.014,0.01,0.02
	c0,0.004,0,0.017-0.004,0.023c-0.041,0.004-0.127,0.002-0.127,0.057c0,0.011,0,0.033,0.007,0.047l0.209,0.5l0.178-0.415
	c0.02-0.046,0.022-0.087,0.022-0.109c0-0.047-0.034-0.068-0.121-0.078c-0.002-0.006-0.004-0.014-0.004-0.02
	c0-0.007,0.002-0.019,0.004-0.025h0.025c0.039,0,0.078,0.006,0.168,0.006c0.014,0,0.076-0.004,0.105-0.004h0.061
	c0.004,0.008,0.006,0.012,0.006,0.02C14.741,9.813,14.739,9.825,14.733,9.831"/>
<path d="M16.038,10.63l-0.34-0.004h-0.096c-0.003-0.008-0.003-0.017-0.003-0.021c0-0.012,0-0.014,0.005-0.022
	c0.02-0.002,0.063,0,0.086-0.008c0.034-0.015,0.047-0.05,0.047-0.101V9.982c0,0,0.002-0.09,0.002-0.116h-0.004l-0.177,0.395
	c-0.022,0.043-0.043,0.09-0.065,0.137c-0.039,0.091-0.062,0.154-0.074,0.191c-0.004,0.016-0.018,0.016-0.027,0.016
	c-0.01,0-0.018-0.004-0.026-0.024c-0.021-0.051-0.037-0.084-0.045-0.105l-0.283-0.619h-0.006v0.158l0.006,0.394
	c0.002,0.121,0.063,0.178,0.16,0.178c0.004,0.006,0.006,0.018,0.006,0.02c0,0.005,0,0.013-0.004,0.021
	c-0.008,0-0.025,0.002-0.045,0.002c-0.012,0-0.072-0.006-0.162-0.006c-0.027,0-0.08,0.002-0.119,0.002h-0.057
	c-0.004-0.008-0.006-0.014-0.006-0.021c0-0.002,0.002-0.012,0.006-0.018c0.022-0.006,0.106-0.025,0.123-0.043
	c0.016-0.018,0.032-0.053,0.032-0.137l0.002-0.199l-0.002-0.234c-0.002-0.069-0.008-0.096-0.043-0.119
	c-0.014-0.01-0.067-0.016-0.11-0.022c-0.006-0.008-0.008-0.017-0.008-0.023c0-0.006,0.002-0.014,0.008-0.024
	c0.032,0,0.092,0.004,0.149,0.004h0.207c0.006,0.006,0.011,0.01,0.015,0.022l0.252,0.57l0.047-0.113
	c0.037-0.092,0.096-0.231,0.176-0.379c0.016-0.033,0.039-0.076,0.051-0.098l0.318-0.006c0.004,0.008,0.01,0.014,0.01,0.022
	c0,0.008-0.004,0.013-0.008,0.021c-0.033,0.006-0.094,0.006-0.123,0.055c-0.01,0.016-0.018,0.031-0.018,0.1v0.408
	c0,0.156,0.039,0.172,0.059,0.183c0.008,0.006,0.057,0.012,0.084,0.012c0.006,0.008,0.008,0.014,0.008,0.022
	C16.046,10.62,16.042,10.622,16.038,10.63"/>
<path d="M108.962,5.56c0-0.043-0.01-0.119-0.032-0.152h-0.25c-0.546,0-0.894,0.021-1.876,0.021c-0.338,0-0.84-0.021-0.959-0.021
	h-0.283c-0.033,0.021-0.044,0.142-0.044,0.185c0,0.055,0.011,0.141,0.054,0.186c0.176,0.055,0.84,0.129,1.123,0.316
	c0.197,0.229,0.284,0.686,0.317,1.112c0.011,0.162,0.021,0.326,0.021,0.773v2.279c0,0.262-0.01,0.348-0.021,0.469
	c-0.187-0.207-0.446-0.6-0.884-1.09l-3.642-4.035c-0.032-0.043-0.098-0.098-0.163-0.141c-0.088,0-0.24-0.011-0.326-0.011
	c-0.699,0-1.963-0.032-2.148-0.032c-0.021,0.043-0.044,0.108-0.044,0.151c0,0.023,0.022,0.176,0.032,0.209
	c0.164,0.043,0.523,0.098,0.818,0.414c0.174,0.195,0.479,0.469,0.577,0.687c0.033,0.077,0.044,0.196,0.044,0.348
	c0,0.566-0.033,1.363-0.033,2.125v2.215c0,0.359-0.031,0.642-0.064,0.828c-0.229,0.24-0.578,0.414-1.145,0.555
	c-0.022,0.056-0.043,0.142-0.043,0.197c0,0.033,0.01,0.143,0.032,0.152h0.207c0.218,0,0.72-0.033,1.046-0.033
	c0.48,0,0.807,0.033,1.254,0.033h0.654c0.043-0.009,0.055-0.142,0.055-0.185c0-0.043-0.012-0.131-0.033-0.174
	c-0.381-0.098-0.938-0.186-1.308-0.676c-0.077-0.164-0.142-0.971-0.142-1.353c0-0.348-0.012-0.826-0.012-1.471
	c0-0.861,0.012-1.613,0.022-1.994c0.065,0.076,0.142,0.174,0.196,0.238l5.037,5.66c0.054,0.053,0.25,0.065,0.305,0.065
	c0.054,0,0.087,0,0.131-0.022c0.021-0.054,0.098-0.23,0.098-0.49c0-0.316-0.011-0.645-0.011-0.807V7.543
	c0-1.363,0.644-1.744,1.396-1.777C108.952,5.711,108.962,5.614,108.962,5.56 M96.469,9.026c0,1.646-0.458,3.098-1.079,3.609
	c-0.316,0.262-0.709,0.393-1.156,0.393c-0.609,0-1.145-0.24-1.449-0.731c-0.414-0.632-0.644-1.81-0.644-2.834
	c0-1.517,0.392-2.705,1.091-3.283c0.37-0.304,0.751-0.424,1.133-0.424c0.59,0,1.157,0.284,1.483,0.752
	C96.262,7.076,96.469,7.894,96.469,9.026 M98.441,9.233c0-1.525-0.676-2.691-1.94-3.391c-0.676-0.371-1.352-0.556-2.071-0.556
	c-1.591,0-3.03,0.949-3.675,2.029c-0.414,0.676-0.631,1.416-0.631,2.201c0,1.254,0.61,2.486,1.559,3.195
	c0.72,0.524,1.537,0.784,2.486,0.784c0.578,0,1.123-0.108,1.656-0.315c0.601-0.23,1.113-0.59,1.516-1.037
	C98.05,11.371,98.441,10.377,98.441,9.233 M88.858,7.86V5.636c0-0.164-0.064-0.207-0.229-0.207c-0.327,0-2.049,0.043-3.793,0.043
	c-1.353,0-2.476-0.021-3.086-0.021h-0.808c-0.141,0-0.185,0.033-0.185,0.185v2.082c0.044,0.034,0.119,0.045,0.175,0.045
	c0.043,0,0.196,0,0.239-0.023c0.49-0.99,0.949-1.526,1.527-1.821c0.326-0.031,0.969-0.042,1.144-0.042
	c0.012,0.119,0.022,0.501,0.032,0.959c0.012,0.785,0.012,1.123,0.012,2.976c0,1.604-0.012,2.322-0.032,2.496
	c-0.044,0.305,0.011,0.535-1.298,0.59c-0.033,0.076-0.033,0.162-0.033,0.25c0,0.043,0,0.131,0.012,0.174h0.424
	c0.404,0,1.354-0.043,1.746-0.043c0.316,0,1.33,0.033,1.994,0.033h0.305c0.033-0.055,0.033-0.174,0.033-0.228
	c0-0.067-0.011-0.143-0.043-0.198c-0.121,0-0.818,0.022-1.123-0.207c-0.033-0.119-0.099-0.435-0.099-0.818
	c-0.011-1.176-0.022-1.623-0.022-2.408c0-1.014,0.012-1.701,0.012-3.588c0.152,0,0.502-0.01,0.828,0
	c0.677,0.185,1.004,0.437,1.298,0.828c0.185,0.252,0.383,0.676,0.577,1.189c0.066,0.022,0.121,0.022,0.186,0.022
	C88.695,7.903,88.837,7.881,88.858,7.86 M79.462,11.403c0-0.152,0-0.219-0.012-0.317c-0.054-0.033-0.076-0.033-0.164-0.033
	c-0.076,0-0.162,0-0.24,0.022c-0.369,0.84-0.904,1.494-1.198,1.668c-0.163,0.099-0.414,0.121-0.818,0.121h-0.893
	c-0.349,0-0.622-0.033-0.72-0.055c-0.164-0.033-0.338-0.295-0.414-0.469c-0.077-0.185-0.121-0.185-0.121-0.687V9.267h0.404
	c0.108,0,0.371,0.022,0.664,0.152c0.273,0.122,0.383,0.284,0.491,0.459c0.099,0.151,0.164,0.752,0.185,0.905
	c0.056,0.031,0.197,0.043,0.285,0.043c0.086,0,0.141-0.012,0.217-0.055c0-0.295-0.064-1.09-0.064-1.527
	c0-0.545,0.075-1.297,0.107-1.688c-0.043-0.023-0.107-0.045-0.217-0.045c-0.076,0-0.219,0-0.283,0.033
	c-0.033,0.153-0.153,0.61-0.176,0.643c-0.162,0.273-0.447,0.481-0.74,0.568c-0.196,0.053-0.48,0.086-0.633,0.086h-0.229V7.828
	c0-1.047,0.021-1.385,0.032-1.582c0.011-0.129,0.032-0.272,0.044-0.369c0.098-0.012,0.152-0.022,0.654-0.022
	c0.631,0,0.927,0.01,1.024,0.01c0.306,0.023,0.534,0.088,0.698,0.219c0.414,0.316,0.73,0.816,1.046,1.351
	c0.065,0.022,0.175,0.022,0.229,0.022c0.066,0,0.076-0.022,0.164-0.065c0-0.666-0.045-1.527-0.066-1.799
	c-0.012-0.109-0.031-0.142-0.25-0.142c-0.088,0-0.502-0.022-0.938-0.022c-0.621,0-0.873,0.012-1.822,0.012
	c-0.512,0-1.569,0.01-2.017,0.01c-0.653,0-1.21-0.022-1.493-0.022h-0.371c-0.033,0.043-0.054,0.131-0.054,0.174
	c0,0.055,0.021,0.176,0.054,0.219c0.131,0.043,0.644,0.033,0.797,0.119c0.152,0.131,0.293,0.186,0.392,0.709
	c0.022,0.23,0.033,0.861,0.033,1.363v2.246c0,0.457-0.011,1.123-0.022,1.395c-0.021,0.426-0.173,0.937-0.238,1.037
	c-0.1,0.076-0.547,0.141-0.982,0.162c-0.032,0.066-0.055,0.176-0.055,0.24c0,0.065,0.022,0.143,0.055,0.198h0.359
	c0.35,0,1.636-0.034,1.931-0.034c0.272,0,0.796,0.022,1.428,0.022c0.349,0,1.374,0.066,3.576,0.066c0.088,0,0.185,0.01,0.295-0.023
	c0.032-0.055,0.032-0.076,0.044-0.174C79.462,12.929,79.462,12.287,79.462,11.403 M70.239,11.785
	c-0.033-0.098-0.121-0.262-0.371-0.262c-0.022,0-0.055,0.012-0.076,0.012c-0.655,0.927-1.375,1.275-2.192,1.275
	c-1.134,0-1.94-0.764-2.201-1.439c-0.144-0.36-0.339-1.145-0.339-1.985c0-0.795,0.12-1.439,0.327-1.908
	c0.479-1.264,1.178-1.656,2.028-1.656c0.709,0,1.297,0.404,1.744,0.98c0.186,0.252,0.381,0.742,0.555,1.321
	c0.045,0.009,0.143,0.031,0.24,0.031c0.065,0,0.219-0.053,0.262-0.098c-0.01-0.119-0.119-0.959-0.119-1.22
	c0-0.327,0.087-0.862,0.087-1.069c-0.065-0.066-0.283-0.109-0.425-0.119c-0.164,0.119-0.219,0.26-0.371,0.447
	c-0.61-0.437-1.178-0.775-2.42-0.775c-1.145,0-2.051,0.392-2.736,1.08c-0.753,0.74-1.167,1.766-1.167,3.074
	c0,1.395,0.589,2.541,1.537,3.26c0.601,0.435,1.483,0.73,2.54,0.73c1.33,0,2.301-0.502,2.791-1.166
	C70.128,12.035,70.15,11.97,70.239,11.785 M61.752,5.56c0-0.043-0.012-0.119-0.033-0.152h-0.252c-0.545,0-0.893,0.021-1.875,0.021
	c-0.338,0-0.84-0.021-0.959-0.021H58.35c-0.033,0.021-0.045,0.142-0.045,0.185c0,0.055,0.012,0.141,0.057,0.186
	c0.174,0.055,0.838,0.129,1.123,0.316c0.195,0.229,0.281,0.686,0.314,1.112c0.012,0.162,0.023,0.326,0.023,0.773v2.279
	c0,0.262-0.012,0.348-0.023,0.469c-0.184-0.207-0.447-0.6-0.883-1.09l-3.637-4.035c-0.033-0.043-0.098-0.098-0.164-0.141
	c-0.087,0-0.24-0.011-0.326-0.011c-0.699,0-1.963-0.032-2.148-0.032c-0.022,0.043-0.043,0.108-0.043,0.151
	c0,0.023,0.021,0.176,0.031,0.209c0.164,0.043,0.524,0.098,0.818,0.414c0.176,0.195,0.481,0.469,0.578,0.687
	c0.034,0.077,0.044,0.196,0.044,0.348c0,0.566-0.032,1.363-0.032,2.125v2.215c0,0.359-0.033,0.642-0.066,0.828
	c-0.229,0.24-0.577,0.414-1.145,0.555c-0.021,0.056-0.043,0.142-0.043,0.197c0,0.033,0.01,0.143,0.032,0.152h0.208
	c0.217,0,0.719-0.033,1.046-0.033c0.48,0,0.806,0.033,1.253,0.033h0.65c0.043-0.009,0.055-0.142,0.055-0.185
	c0-0.043-0.012-0.131-0.032-0.174c-0.379-0.098-0.934-0.186-1.305-0.676c-0.075-0.164-0.141-0.971-0.141-1.353
	c0-0.348-0.012-0.826-0.012-1.471c0-0.861,0.012-1.613,0.023-1.994c0.065,0.076,0.141,0.174,0.196,0.238l5.033,5.66
	c0.055,0.053,0.25,0.065,0.305,0.065s0.088,0,0.131-0.022c0.021-0.054,0.098-0.23,0.098-0.49c0-0.316-0.012-0.645-0.012-0.807V7.543
	c0-1.363,0.645-1.744,1.396-1.777C61.74,5.711,61.752,5.614,61.752,5.56 M50.973,13.114c0-0.055-0.012-0.174-0.033-0.217
	c-0.164-0.012-0.61-0.055-0.806-0.098c-0.175-0.209-0.296-0.447-0.371-0.84c-0.011-0.523-0.023-1.603-0.023-2.617V6.662
	c0-0.295,0.12-0.524,0.198-0.59c0.207-0.195,0.621-0.238,0.97-0.283c0.022-0.043,0.032-0.162,0.032-0.207
	c0-0.065-0.032-0.153-0.054-0.174h-0.317c-0.458,0-1.526,0.054-1.897,0.054c-0.229,0-1.297-0.033-1.776-0.043h-0.24
	c-0.033,0.043-0.054,0.086-0.054,0.184c0,0.045,0.009,0.154,0.021,0.207c0.535,0.045,0.774,0.098,0.851,0.154
	c0.131,0.098,0.315,0.338,0.36,0.926c0.01,0.207,0.021,0.654,0.031,1.658c0.012,0.545,0.023,1.307,0.023,1.94
	c0,0.316-0.023,1.025-0.033,1.406c-0.021,0.262-0.077,0.512-0.152,0.654c-0.131,0.11-0.263,0.305-1.058,0.36
	c-0.022,0.043-0.034,0.185-0.034,0.23c0,0.086,0.023,0.129,0.023,0.184h0.185c0.437,0,1.527-0.055,2.093-0.055
	c0.164,0,1.297,0.033,1.657,0.033h0.361C50.961,13.246,50.973,13.158,50.973,13.114 M42.23,7.424c0,0.676-0.458,1.45-0.992,1.58
	c-0.218,0.055-0.492,0.088-0.894,0.088c-0.11,0-0.274,0-0.405-0.023l-0.01-0.926V6.138c0-0.131,0.032-0.207,0.065-0.24
	c0.032-0.033,0.23-0.064,0.459-0.064c0.85,0,1.221,0.074,1.526,0.587C42.152,6.715,42.23,7.054,42.23,7.424 M45.391,13.126
	c0-0.055-0.022-0.186-0.055-0.229c-0.108,0-0.555-0.021-0.719-0.143c-0.054-0.064-0.141-0.195-0.185-0.273
	c-0.143-0.5-0.305-0.838-0.469-1.252c-0.23-0.545-0.545-1.059-0.807-1.299c-0.098-0.086-0.436-0.228-0.818-0.359
	c-0.174-0.065-0.315-0.119-0.446-0.174c0.163-0.033,0.239-0.045,0.446-0.064c0.808-0.1,0.992-0.241,1.199-0.405
	c0.437-0.328,0.676-0.828,0.676-1.418c0-0.883-0.566-1.732-1.362-1.984c-0.263-0.076-0.73-0.119-1.308-0.119
	c-0.818,0-1.963,0.076-2.508,0.076c-0.164,0-1.113-0.022-1.494-0.022c-0.164,0-0.578-0.021-0.643-0.021
	c-0.033,0.076-0.054,0.162-0.054,0.207c0,0.043,0.011,0.152,0.021,0.195c0.186,0.022,0.524,0.065,0.699,0.098
	c0.26,0.197,0.348,0.35,0.457,0.59c0.055,0.349,0.065,1.242,0.065,2.779c0,1.113,0.012,2.399-0.043,2.815
	c-0.032,0.271-0.131,0.597-0.447,0.728c-0.141,0.024-0.404,0.066-0.621,0.076c-0.034,0.055-0.055,0.164-0.055,0.219
	c0,0.033,0.021,0.119,0.043,0.174c0.154,0,1.822-0.031,2.17-0.031c0.697,0,1.287,0.031,1.908,0.031
	c0.022-0.043,0.043-0.119,0.043-0.164c0-0.074-0.021-0.184-0.043-0.229c-0.219-0.021-0.49-0.086-0.61-0.109
	c-0.273-0.129-0.47-0.391-0.47-0.774l-0.01-2.517c0.086-0.012,0.196-0.012,0.283-0.012c0.141,0,0.305,0.024,0.578,0.174
	c0.403,0.23,0.6,0.395,0.862,0.797c0.349,0.545,0.578,1.547,0.686,2.344c0.033,0.228,0.12,0.425,0.328,0.447
	c0.086,0.012,0.665,0.033,1.079,0.033h1.559C45.369,13.267,45.391,13.181,45.391,13.126 M33.552,7.478
	c0,0.557-0.197,1.047-0.556,1.363c-0.229,0.186-0.59,0.295-1.135,0.295c-0.228,0-0.404-0.009-0.468-0.021
	c-0.087-0.012-0.143-0.022-0.143-0.078l0.012-3.194c0.131-0.009,0.316-0.054,0.633-0.054c0.741,0,1.199,0.185,1.417,0.644
	C33.463,6.726,33.552,7.097,33.552,7.478 M35.502,7.522c0-0.818-0.469-1.582-1.166-1.896c-0.359-0.155-0.992-0.252-1.951-0.252
	c-0.84,0-2.149,0.066-2.725,0.066c-0.404,0-1.014-0.045-1.352-0.045c-0.034,0.055-0.056,0.131-0.056,0.174
	c0,0.045,0,0.164,0.033,0.219c0.207,0.066,0.545,0.119,0.764,0.175c0.184,0.163,0.228,0.305,0.294,0.622
	c0.032,0.38,0.055,0.861,0.055,1.689c0,2.301-0.011,3.51-0.044,3.771c-0.043,0.329-0.261,0.666-0.622,0.774
	c-0.164,0.033-0.404,0.088-0.631,0.109c-0.011,0.055-0.023,0.131-0.023,0.229c0,0.088,0.012,0.099,0.032,0.154
	c0.349,0,1.374-0.045,1.767-0.045c0.971,0,1.963,0.045,2.365,0.045h0.274c0.033-0.045,0.033-0.121,0.033-0.174
	c0-0.066,0-0.154-0.023-0.197c-0.327-0.043-0.817-0.109-1.024-0.35c-0.109-0.129-0.219-0.316-0.219-0.642L31.25,9.549
	c0.654,0.043,1.353,0.065,1.734,0.065c0.501,0,0.926-0.086,1.264-0.196C35.023,9.126,35.502,8.36,35.502,7.522"/>
<path d="M109.137,17.722c0-0.067-0.043-0.089-0.065-0.132c-0.447,0-1.035,0.033-1.265,0.033c-0.556,0-1.231-0.045-1.526-0.045
	c-0.033,0.066-0.044,0.076-0.044,0.131c0,0.056,0.011,0.098,0.022,0.131c0.316,0.064,0.773,0.143,0.861,0.295
	c0.076,0.141,0.099,0.25,0.099,0.424c0,0.131-0.011,0.262-0.066,0.404c-0.098,0.271-0.305,0.697-0.599,1.297
	c-0.502,1.014-0.818,1.646-0.993,1.896c-0.283-0.479-0.915-1.742-1.067-2.07l-0.611-1.33c-0.021-0.043-0.043-0.197-0.043-0.295
	c0-0.141,0.021-0.239,0.043-0.283c0.099-0.195,0.437-0.217,0.895-0.273c0.021-0.053,0.032-0.119,0.032-0.162
	c0-0.076-0.032-0.055-0.065-0.109h-0.195c-0.731,0-0.514,0.033-1.768,0.033c-0.533,0-1.177-0.033-1.264-0.033
	c-0.044,0.076-0.066,0.089-0.066,0.164c0,0.043,0.012,0.076,0.045,0.131c0.729,0.174,0.947,0.305,1.024,0.447l1.908,3.738
	c0.185,0.35,0.294,0.621,0.349,0.818c0.076,0.305,0.088,0.752,0.088,1.307c0,0.471-0.164,0.721-0.35,0.842
	c-0.076,0.043-0.622,0.119-0.872,0.142c-0.044,0.075-0.056,0.097-0.056,0.151s0.022,0.088,0.033,0.131
	c0.557,0,1.136-0.012,1.461-0.012c0.229,0,0.578,0.012,1.222,0.023c0.37,0.01,0.653,0.021,0.85,0.021
	c0.022-0.045,0.056-0.088,0.056-0.143c0-0.053-0.012-0.086-0.045-0.141c-0.349-0.043-0.838-0.109-0.947-0.219
	c-0.176-0.186-0.262-0.271-0.284-0.697l-0.087-1.637c-0.012-0.119,0.033-0.229,0.044-0.26c0.033-0.121,0.075-0.219,0.118-0.307
	l1.68-3.324c0.152-0.283,0.48-0.6,0.698-0.73c0.153-0.098,0.491-0.164,0.709-0.219C109.116,17.807,109.137,17.765,109.137,17.722
	 M100.329,19.967v-2.115c0-0.164-0.066-0.207-0.229-0.207c-0.327,0-1.832,0.043-3.576,0.043c-1.352,0-2.257-0.021-2.868-0.021H92.85
	c-0.142,0-0.187,0.031-0.187,0.186v1.973c0.045,0.033,0.078,0.043,0.131,0.043c0.045,0,0.088,0,0.132-0.021
	c0.425-0.95,0.643-1.45,1.374-1.821c0.326-0.033,1.471-0.043,1.646-0.043c0.011,0.119,0.022,0.5,0.033,0.959
	c0.011,0.785,0.011,1.209,0.011,3.064c0,1.602-0.011,2.43-0.033,2.604c-0.043,0.307,0.012,0.535-1.297,0.59
	c-0.033,0.076-0.033,0.098-0.033,0.186c0,0.043,0,0.087,0.012,0.131h0.425c0.403,0,0.937-0.044,1.33-0.044
	c0.315,0,0.916,0.032,1.581,0.032h0.305c0.033-0.055,0.033-0.109,0.033-0.162c0-0.066-0.011-0.1-0.044-0.154
	c-0.12,0-0.817,0.023-1.123-0.207c-0.033-0.119-0.098-0.436-0.098-0.816c-0.011-1.178-0.022-1.733-0.022-2.52
	c0-1.014,0.012-1.787,0.012-3.673c0.152,0,0.959-0.011,1.287,0c0.674,0.185,0.937,0.435,1.23,0.827
	c0.262,0.35,0.328,0.666,0.49,1.189c0.066,0.021,0.099,0.021,0.164,0.021C100.251,20.01,100.307,19.988,100.329,19.967
	 M91.269,25.352c0-0.055-0.012-0.109-0.033-0.152c-0.162-0.012-0.609-0.055-0.807-0.098c-0.173-0.207-0.294-0.447-0.37-0.84
	c-0.011-0.523-0.022-1.711-0.022-2.727v-2.768c0-0.295,0.121-0.525,0.196-0.59c0.207-0.195,0.622-0.24,0.97-0.283
	c0.022-0.043,0.033-0.098,0.033-0.141c0-0.066-0.033-0.109-0.054-0.131h-0.315c-0.459,0-1.113,0.053-1.484,0.053
	c-0.229,0-0.883-0.031-1.362-0.043h-0.24c-0.032,0.043-0.054,0.043-0.054,0.141c0,0.045,0.011,0.088,0.021,0.143
	c0.535,0.045,0.774,0.099,0.851,0.152c0.131,0.1,0.315,0.338,0.36,0.928c0.011,0.207,0.021,0.764,0.031,1.766
	c0.012,0.545,0.022,1.287,0.022,1.919c0,0.317-0.022,1.134-0.033,1.515c-0.021,0.262-0.076,0.514-0.151,0.654
	c-0.132,0.109-0.263,0.305-1.059,0.361c-0.021,0.043-0.032,0.119-0.032,0.162c0,0.088,0.021,0.088,0.021,0.143h0.187
	c0.438,0,1.112-0.055,1.679-0.055c0.164,0,0.884,0.031,1.244,0.031h0.358C91.257,25.439,91.269,25.395,91.269,25.352 M85.882,23.347
	c0-0.874-0.391-1.472-1.231-1.919c-0.229-0.131-0.632-0.273-1.21-0.438c-0.665-0.185-1.221-0.402-1.581-0.6
	c-0.239-0.131-0.644-0.49-0.644-1.188s0.71-1.275,1.537-1.275c0.654,0,1.179,0.326,1.494,0.762c0.273,0.383,0.371,0.557,0.676,1.244
	c0.033,0.01,0.076,0.021,0.109,0.021c0.099,0,0.186-0.055,0.24-0.108c-0.033-0.274-0.087-0.655-0.087-0.981
	c0-0.283,0.065-0.654,0.099-0.851c-0.089-0.132-0.187-0.153-0.328-0.153c-0.152,0.1-0.295,0.25-0.426,0.393
	c-0.719-0.578-1.308-0.676-1.853-0.676c-1.34,0-2.3,0.895-2.3,2.082c0,0.404,0.141,0.797,0.402,1.199
	c0.24,0.338,0.59,0.6,1.059,0.797c0.315,0.129,1.732,0.557,1.929,0.633c0.872,0.338,1.2,0.631,1.2,1.404
	c0,0.383-0.164,0.721-0.48,1.102c-0.283,0.35-0.73,0.514-1.21,0.514c-0.513,0-1.396-0.219-1.832-0.807
	c-0.262-0.338-0.632-1.047-0.741-1.473c-0.076-0.021-0.076-0.021-0.152-0.021c-0.065,0-0.143,0.021-0.207,0.064
	c0,0.143,0.044,0.861,0.044,1.08c0,0.533-0.099,0.795-0.12,0.971c0.032,0.109,0.218,0.219,0.35,0.219
	c0.228-0.197,0.467-0.35,0.545-0.35c0.064,0,0.162,0.031,0.26,0.098c0.709,0.459,1.299,0.545,1.822,0.545
	C84.782,25.635,85.882,24.861,85.882,23.347 M76.234,19.584c0,0.697-0.556,1.482-1.198,1.625c-0.263,0.056-0.645,0.088-1.135,0.088
	c-0.131,0-0.502,0-0.665-0.023l-0.011-0.959v-2.061c0-0.143,0.033-0.219,0.076-0.25c0.044-0.032,0.49-0.066,0.763-0.066
	c1.024,0,1.494,0.098,1.865,0.633C76.137,18.865,76.234,19.203,76.234,19.584 M78.523,25.361c0-0.053-0.021-0.119-0.054-0.162
	c-0.109,0-0.557-0.021-0.721-0.143c-0.054-0.064-0.141-0.195-0.185-0.271c-0.142-0.502-0.294-0.949-0.458-1.363
	c-0.229-0.545-0.545-1.059-0.807-1.297c-0.098-0.088-0.403-0.23-0.785-0.359c-0.174-0.066-0.316-0.121-0.447-0.176
	c0.164-0.031,0.24-0.043,0.447-0.064c0.709-0.088,0.949-0.24,1.157-0.404c0.435-0.326,0.718-0.815,0.718-1.406
	c0-0.883-0.566-1.723-1.362-1.973c-0.262-0.076-0.73-0.119-1.309-0.119c-0.817,0-1.429,0.074-1.974,0.074
	c-0.162,0-0.697-0.021-1.078-0.021c-0.164,0-0.578-0.021-0.644-0.021c-0.032,0.076-0.055,0.1-0.055,0.143s0.011,0.107,0.022,0.152
	c0.185,0.022,0.522,0.065,0.697,0.098c0.262,0.195,0.35,0.35,0.458,0.59c0.054,0.348,0.066,1.33,0.066,2.867
	c0,1.111,0.01,2.508-0.046,2.922c-0.031,0.271-0.129,0.598-0.446,0.729c-0.142,0.023-0.403,0.067-0.621,0.078
	c-0.033,0.053-0.056,0.098-0.056,0.152c0,0.033,0.022,0.076,0.045,0.131c0.152,0,1.406-0.033,1.755-0.033
	c0.698,0,0.872,0.033,1.494,0.033c0.021-0.044,0.044-0.076,0.044-0.121c0-0.076-0.022-0.119-0.044-0.162
	c-0.218-0.021-0.491-0.088-0.611-0.109c-0.272-0.131-0.468-0.393-0.468-0.775l-0.012-2.725c0.088-0.012,0.403-0.012,0.49-0.012
	c0.295,0,0.59,0.023,0.872,0.154c0.415,0.184,0.808,0.479,1.069,0.883c0.349,0.545,0.578,1.58,0.688,2.375
	c0.031,0.23,0.119,0.426,0.326,0.448c0.087,0.011,0.219,0.032,0.633,0.032h1.133C78.503,25.461,78.523,25.418,78.523,25.361
	 M69.376,23.705c0-0.152,0-0.219-0.01-0.315c-0.055-0.034-0.076-0.034-0.164-0.034c-0.076,0-0.064,0-0.142,0.023
	c-0.24,0.795-0.653,1.386-1.123,1.668c-0.163,0.098-0.458,0.119-0.926,0.119H65.79c-0.381-0.012-0.621-0.033-0.72-0.055
	c-0.163-0.031-0.338-0.295-0.413-0.469c-0.078-0.186-0.121-0.25-0.121-0.752v-2.486h0.35c0.349,0,0.632,0.023,0.926,0.154
	c0.273,0.119,0.48,0.293,0.589,0.467c0.099,0.155,0.132,0.754,0.153,0.906c0.054,0.033,0.087,0.043,0.174,0.043
	s0.098-0.01,0.175-0.055c0-0.293-0.064-1.09-0.064-1.525c0-0.545,0.075-1.211,0.107-1.604c-0.043-0.021-0.064-0.043-0.174-0.043
	c-0.077,0-0.108,0-0.175,0.031c-0.032,0.154-0.12,0.611-0.141,0.645c-0.164,0.271-0.547,0.49-0.84,0.578
	c-0.197,0.055-0.48,0.088-0.895,0.088h-0.174v-1.07c0-1.045,0.021-1.471,0.031-1.668c0.012-0.13,0.033-0.271,0.045-0.369
	c0.098-0.011,0.414-0.021,0.916-0.021c0.632,0,1.101,0.011,1.199,0.011c0.305,0.021,0.533,0.087,0.697,0.218
	c0.534,0.414,0.676,0.688,0.971,1.352c0.065,0.021,0.075,0.021,0.131,0.021c0.064,0,0.076-0.021,0.162-0.064
	c0-0.666-0.043-1.418-0.064-1.691c-0.012-0.109-0.033-0.141-0.251-0.141c-0.087,0-0.501-0.021-0.937-0.021
	c-0.623,0-0.873,0.01-1.822,0.01c-0.512,0-1.416,0.012-1.863,0.012c-0.654,0-0.797-0.021-1.081-0.021h-0.373
	c-0.033,0.043-0.056,0.086-0.056,0.129c0,0.057,0.022,0.109,0.056,0.154c0.132,0.044,0.647,0.033,0.8,0.119
	c0.152,0.131,0.294,0.164,0.393,0.688c0.021,0.229,0.033,0.971,0.033,1.473v2.244c0,0.457-0.012,1.211-0.022,1.482
	c-0.022,0.426-0.174,0.961-0.24,1.059c-0.099,0.076-0.546,0.141-0.985,0.162c-0.033,0.067-0.056,0.11-0.056,0.176
	c0,0.064,0.022,0.098,0.056,0.152h0.362c0.351,0,1.224-0.033,1.517-0.033c0.273,0,0.644,0.022,1.276,0.022
	c0.349,0,1.373,0.065,3.576,0.065c0.087,0,0.185,0.012,0.294-0.021c0.033-0.055,0.033-0.076,0.044-0.174
	C69.376,25.123,69.376,24.588,69.376,23.705 M61.305,17.754c0-0.045-0.012-0.109-0.055-0.121h-0.37
	c-0.263,0-0.677,0.021-0.862,0.021c-0.883,0-1.199-0.055-1.33-0.055h-0.195c-0.023,0.055-0.057,0.088-0.057,0.143
	c0,0.043,0.023,0.076,0.023,0.119c0.271,0.033,0.512,0.088,0.752,0.164c0.131,0.131,0.273,0.393,0.273,0.688
	c0,0.107-0.109,0.621-0.264,0.992l-1.754,4.316l-2.154-5.463c0.032-0.26,0.174-0.512,0.357-0.609
	c0.186-0.021,0.412-0.088,0.707-0.088c0.021-0.043,0.043-0.107,0.043-0.152c0-0.043-0.01-0.109-0.055-0.119h-0.273
	c-0.334,0-0.846,0.043-1.423,0.043c-0.25,0-0.741-0.021-1.221-0.021h-0.425c-0.022,0.043-0.043,0.064-0.043,0.131
	c0,0.064,0.011,0.088,0.032,0.131c0.305,0.076,0.6,0.195,0.916,0.369c0.207,0.307,0.655,1.408,0.895,1.984l0.902,2.182
	c0.75,1.811,1.197,3.02,1.252,3.227c0.055,0.033,0,0.064,0.098,0.064s0.088-0.019,0.109-0.074l2.812-6.76
	c0.098-0.24,0.25-0.469,0.393-0.623c0.174-0.195,0.533-0.271,0.871-0.348C61.271,17.852,61.305,17.807,61.305,17.754 M51.757,25.352
	c0-0.055-0.009-0.109-0.032-0.152c-0.164-0.012-0.61-0.055-0.807-0.098c-0.174-0.207-0.293-0.447-0.371-0.84
	c-0.01-0.523-0.021-1.711-0.021-2.727v-2.768c0-0.295,0.119-0.525,0.196-0.59c0.207-0.195,0.621-0.24,0.97-0.283
	c0.022-0.043,0.033-0.098,0.033-0.141c0-0.066-0.033-0.109-0.055-0.131h-0.316c-0.458,0-1.112,0.053-1.483,0.053
	c-0.228,0-0.883-0.031-1.362-0.043h-0.24c-0.033,0.043-0.055,0.043-0.055,0.141c0,0.045,0.011,0.088,0.022,0.143
	c0.534,0.045,0.774,0.099,0.85,0.152c0.131,0.1,0.317,0.338,0.361,0.928c0.01,0.207,0.021,0.764,0.032,1.766
	c0.011,0.545,0.023,1.287,0.023,1.919c0,0.317-0.023,1.134-0.034,1.515c-0.021,0.262-0.076,0.514-0.153,0.654
	c-0.13,0.109-0.261,0.305-1.057,0.361c-0.022,0.043-0.033,0.119-0.033,0.162c0,0.088,0.023,0.088,0.023,0.143h0.184
	c0.437,0,1.113-0.055,1.679-0.055c0.164,0,0.883,0.031,1.243,0.031h0.36C51.749,25.439,51.757,25.395,51.757,25.352 M46.831,17.73
	c0-0.043-0.011-0.076-0.033-0.107h-0.25c-0.545,0-0.786,0.021-1.766,0.021c-0.339,0-0.84-0.021-0.959-0.021h-0.285
	c-0.032,0.021-0.043,0.099-0.043,0.142c0,0.054,0.011,0.075,0.054,0.118c0.175,0.055,0.84,0.132,1.123,0.316
	c0.196,0.231,0.284,0.688,0.317,1.113c0.01,0.162,0.021,0.327,0.021,0.773v3.238c0,0.262-0.011,0.35-0.021,0.469
	c-0.186-0.207-0.502-0.611-0.927-1.112l-4.165-4.862c-0.033-0.045-0.098-0.097-0.164-0.143c-0.087,0-0.195-0.01-0.283-0.01
	c-0.697,0-1.308-0.033-1.494-0.033c-0.021,0.043-0.032,0.064-0.032,0.109c0,0.022,0.011,0.109,0.021,0.141
	c0.164,0.045,0.644,0.1,0.841,0.307c0.174,0.195,0.435,0.424,0.533,0.643c0.033,0.076,0.045,0.195,0.045,0.35
	c0,0.566-0.033,1.602-0.033,2.365v2.322c0,0.359-0.033,0.643-0.066,0.828c-0.229,0.24-0.578,0.414-1.145,0.557
	c-0.022,0.055-0.043,0.076-0.043,0.131c0,0.033,0.01,0.098,0.032,0.107h0.207c0.218,0,0.72-0.031,1.048-0.031
	c0.478,0,0.696,0.031,1.142,0.031h0.657c0.043-0.01,0.052-0.098,0.052-0.141s-0.009-0.066-0.032-0.109
	c-0.381-0.098-0.936-0.186-1.307-0.676c-0.077-0.164-0.143-0.992-0.143-1.373c0-0.35-0.011-0.916-0.011-1.559
	c0-0.861,0.011-2.051,0.023-2.432c0.065,0.076,0.164,0.195,0.239,0.283l5.168,6.051c0.054,0.055,0.076,0.064,0.132,0.064
	c0.053,0,0.02,0,0.064-0.021c0.022-0.055,0.055-0.229,0.055-0.49c0-0.316-0.011-0.643-0.011-0.807V19.65
	c0-1.363,0.644-1.746,1.396-1.777C46.819,17.818,46.831,17.785,46.831,17.73 M36.734,17.785c0-0.043-0.021-0.109-0.054-0.141h-0.315
	c-0.339,0-0.797,0.021-1.19,0.021c-0.435,0-0.925-0.021-1.243-0.021h-0.391c-0.034,0.064-0.045,0.086-0.045,0.141
	c0,0.045,0.011,0.088,0.033,0.143c0.045,0,0.84,0.01,0.981,0.207c0.12,0.164,0.382,0.566,0.425,0.807
	c0.022,0.109,0.088,0.557,0.088,1.199c0,0.926,0,1.547-0.011,1.875c-0.022,0.611-0.088,1.09-0.197,1.449
	c-0.305,0.949-1.013,1.418-2.136,1.418c-0.48,0-0.894-0.098-1.276-0.273c-0.709-0.348-1.047-1.013-1.057-1.373l-0.055-3.27
	l-0.01-1.33c0-0.252,0.315-0.48,0.424-0.611c0.088-0.043,0.567-0.088,0.84-0.109c0.033-0.064,0.054-0.098,0.054-0.151
	c0-0.056-0.032-0.11-0.076-0.142l-0.414,0.01c-0.404,0.012-0.937,0.021-1.275,0.021c-0.524,0-0.928-0.01-1.254-0.01h-0.457
	c-0.045,0.031-0.056,0.098-0.056,0.152s0.011,0.098,0.044,0.131c0.348,0.044,0.577,0.076,0.73,0.107
	c0.185,0.109,0.317,0.295,0.382,0.48c0.011,0.143,0.032,0.49,0.032,1.178v2.617c0,0.676,0.034,1.154,0.11,1.461
	c0.14,0.566,0.446,1.014,0.948,1.34c0.534,0.35,1.199,0.523,1.995,0.523c0.731,0,1.352-0.152,1.875-0.447
	c0.545-0.293,0.883-0.773,1.079-1.449c0.109-0.402,0.175-0.84,0.175-1.297v-2.093c0-0.394,0.022-0.884,0.022-1.081
	c0.011-0.587,0.164-0.938,0.328-1.199c0.174-0.054,0.326-0.086,0.904-0.152C36.713,17.873,36.734,17.84,36.734,17.785"/>
<rect x="-17" y="-10.875" fill="none" width="144" height="54"/>
</svg>
