<?xml version="1.0" encoding="utf-8"?>
<!-- Generator: Adobe Illustrator 15.1.0, SVG Export Plug-In . SVG Version: 6.00 Build 0)  -->
<!DOCTYPE svg PUBLIC "-//W3C//DTD SVG 1.1//EN" "http://www.w3.org/Graphics/SVG/1.1/DTD/svg11.dtd">
<svg version="1.1" id="Layer_1" xmlns="http://www.w3.org/2000/svg" xmlns:xlink="http://www.w3.org/1999/xlink" x="0px" y="0px"
	 width="32px" height="32px" viewBox="0 0 32 32" enable-background="new 0 0 32 32" xml:space="preserve">
<path fill="#55ACEE" d="M26.667,0H5.334C2.4,0,0,2.4,0,5.334v21.332C0,29.602,2.4,32,5.334,32h21.333C29.602,32,32,29.602,32,26.666
	V5.334C32,2.4,29.602,0,26.667,0z M23.952,11.921c0.008,0.176,0.012,0.353,0.012,0.531c0,5.422-4.127,11.675-11.675,11.675
	c-2.317,0-4.474-0.679-6.29-1.844c0.321,0.038,0.648,0.058,0.979,0.058c1.922,0,3.692-0.655,5.096-1.757
	c-1.796-0.033-3.312-1.219-3.833-2.849c0.251,0.048,0.508,0.073,0.771,0.073c0.374,0,0.737-0.05,1.081-0.144
	c-1.877-0.377-3.291-2.035-3.291-4.023c0-0.017,0-0.034,0-0.052c0.553,0.307,1.187,0.492,1.858,0.513
	c-1.101-0.736-1.825-1.992-1.825-3.415c0-0.752,0.202-1.457,0.556-2.063c2.024,2.482,5.047,4.116,8.457,4.287
	c-0.07-0.3-0.106-0.614-0.106-0.935c0-2.266,1.837-4.103,4.103-4.103c1.18,0,2.247,0.498,2.995,1.296
	c0.935-0.184,1.813-0.525,2.606-0.996c-0.307,0.958-0.957,1.762-1.805,2.271c0.83-0.1,1.621-0.32,2.357-0.646
	C25.45,10.621,24.755,11.343,23.952,11.921L23.952,11.921z"/>
</svg>
