<?xml version="1.0" encoding="UTF-8" standalone="no"?><svg xmlns:dc="http://purl.org/dc/elements/1.1/" xmlns:cc="http://creativecommons.org/ns#" xmlns:rdf="http://www.w3.org/1999/02/22-rdf-syntax-ns#" xmlns:svg="http://www.w3.org/2000/svg" xmlns="http://www.w3.org/2000/svg" viewBox="0 0 493.36 441.333" height="441.333" width="493.36" xml:space="preserve" version="1.1"><metadata><rdf:RDF><cc:Work rdf:about=""><dc:format>image/svg+xml</dc:format><dc:type rdf:resource="http://purl.org/dc/dcmitype/StillImage"/></cc:Work></rdf:RDF></metadata><defs/><path d="M8.7 150.833L103.365 186l-.167 253.333L8.7 404.5V150.833" fill="#2873ab" fill-opacity="1" fill-rule="nonzero" stroke="none" stroke-width=".13333"/><path d="M107.22 89.32c10.858 32.123-3.53 58.16-32.14 58.16-28.607 0-60.6-26.037-71.46-58.16-10.857-32.117 3.53-58.156 32.14-58.156 28.608 0 60.6 26.04 71.46 58.157" fill="#2873ab" fill-opacity="1" fill-rule="nonzero" stroke="none" stroke-width=".13333"/><path d="M223.81 150.833L129.145 186l.166 253.333 94.5-34.833V150.833" fill="#ed1d33" fill-opacity="1" fill-rule="nonzero" stroke="none" stroke-width=".13333"/><path d="M124.678 89.32c-10.86 32.123 3.53 58.16 32.138 58.16 28.608 0 60.6-26.037 71.46-58.16 10.86-32.117-3.53-58.156-32.137-58.156-28.61 0-60.604 26.04-71.462 58.157" fill="#ed1d33" fill-opacity="1" fill-rule="nonzero" stroke="none" stroke-width=".13333"/><path d="M248.032 150.833L342.7 186l-.168 253.333-94.5-34.833V150.833" fill="#2873ab" fill-opacity="1" fill-rule="nonzero" stroke="none" stroke-width=".13333"/><path d="M347.165 89.32c10.86 32.123-3.53 58.16-32.137 58.16-28.61 0-60.603-26.037-71.46-58.16-10.86-32.117 3.53-58.156 32.136-58.156 28.61 0 60.6 26.04 71.46 58.157" fill="#2873ab" fill-opacity="1" fill-rule="nonzero" stroke="none" stroke-width=".13333"/><path d="M493.365 0v87s-30.666-12-34.333 19c-.333 33 0 44.833 0 44.833l34.333-11.166V216l-34.48 12.333v178l-94.186 35V126.667S362.7 13.333 493.364 0" fill="#ed1d33" fill-opacity="1" fill-rule="nonzero" stroke="none" stroke-width=".13333"/></svg>